<?xml version="1.0" encoding="UTF-8" standalone="no"?>
<!DOCTYPE svg PUBLIC "-//W3C//DTD SVG 1.1//EN" "http://www.w3.org/Graphics/SVG/1.1/DTD/svg11.dtd">
<svg width="100%" height="100%" viewBox="0 0 300 200" version="1.1" xmlns="http://www.w3.org/2000/svg" xmlns:xlink="http://www.w3.org/1999/xlink" xml:space="preserve" xmlns:serif="http://www.serif.com/" style="fill-rule:evenodd;clip-rule:evenodd;">
    <rect x="0" y="0" width="300" height="200" style="fill:rgb(223,233,244);"/>
    <g transform="matrix(1,0,0,1,50,0)">
        <g transform="matrix(1,0,0,0.952423,0,5.138285)">
            <rect x="55" y="108" width="90" height="50" style="fill:rgb(139,149,165);"/>
        </g>
        <rect x="55" y="73" width="90" height="35" style="fill:rgb(224,138,62);"/>
        <g transform="matrix(1,0,0,0.85727,0,10.419269)">
            <rect x="55" y="58" width="90" height="15" style="fill:rgb(58,110,165);"/>
        </g>
        <path d="M145,66L145,150C145,154.415 141.415,158 137,158L63,158C58.585,158 55,154.415 55,150L55,66C55,61.585 58.585,58 63,58L137,58C141.415,58 145,61.585 145,66Z" style="fill:none;stroke:rgb(38,52,74);stroke-width:5px;"/>
        <path d="M160,58L160,158" style="fill:none;fill-rule:nonzero;stroke:rgb(38,52,74);stroke-width:2.5px;stroke-dasharray:4,4;"/>
        <path d="M155,58L165,58" style="fill:none;fill-rule:nonzero;stroke:rgb(38,52,74);stroke-width:2.5px;"/>
        <path d="M155,158L165,158" style="fill:none;fill-rule:nonzero;stroke:rgb(38,52,74);stroke-width:2.5px;"/>
    </g>
</svg>
